<?xml version="1.0" encoding="UTF-8" ?>
<svg width="150pt" height="150pt" viewBox="0 0 150 150" version="1.1" xmlns="http://www.w3.org/2000/svg">
<g id="#ee483eff">
<path fill="#ee483e" opacity="1.00" d=" M 33.67 27.67 C 46.85 14.90 66.20 9.46 84.23 11.85 C 98.00 13.62 111.26 20.05 120.69 30.31 C 139.19 50.02 141.00 83.13 124.71 104.70 C 123.18 106.86 121.33 109.11 121.51 111.93 C 121.29 121.07 121.91 130.23 121.19 139.36 C 112.11 136.17 103.45 131.90 94.39 128.63 C 90.06 126.80 85.48 128.84 81.05 129.03 C 62.40 130.79 42.75 123.92 30.36 109.62 C 10.20 86.99 11.24 48.42 33.67 27.67 M 69.88 45.33 C 62.36 47.38 55.79 52.80 52.65 59.96 C 49.08 68.79 50.45 79.63 57.04 86.68 C 55.35 88.42 53.23 89.97 52.37 92.32 C 51.49 95.87 53.79 99.38 56.80 101.11 C 62.54 104.57 69.49 104.81 76.00 104.77 C 81.87 104.60 87.81 104.54 93.56 103.22 C 97.35 102.42 100.38 98.88 100.64 95.05 C 99.76 91.66 97.46 88.91 95.60 86.03 C 102.05 77.92 103.28 65.54 97.26 56.84 C 92.01 47.40 80.24 42.93 69.88 45.33 Z" />
</g>
<g id="#dadbdcff">
<path fill="#dadbdc" opacity="1.00" d=" M 69.88 45.33 C 80.24 42.93 92.01 47.40 97.26 56.84 C 97.09 63.40 96.40 70.26 93.01 76.04 C 89.29 82.51 83.19 87.80 75.92 89.80 C 71.61 90.95 67.13 91.11 62.70 91.43 C 60.70 89.99 58.81 88.40 57.04 86.68 C 50.45 79.63 49.08 68.79 52.65 59.96 C 52.61 64.52 52.78 69.51 55.68 73.28 C 58.68 77.15 63.49 80.01 68.50 79.62 C 76.69 78.87 83.82 71.93 84.91 63.82 C 84.98 58.37 82.02 53.38 78.99 49.04 C 77.03 45.98 73.14 45.69 69.88 45.33 Z" />
</g>
<g id="#f4f5f5ff">
<path fill="#f4f5f5" opacity="1.00" d=" M 52.65 59.96 C 55.79 52.80 62.36 47.38 69.88 45.33 C 73.14 45.69 77.03 45.98 78.99 49.04 C 82.02 53.38 84.98 58.37 84.91 63.82 C 83.82 71.93 76.69 78.87 68.50 79.62 C 63.49 80.01 58.68 77.15 55.68 73.28 C 52.78 69.51 52.61 64.52 52.65 59.96 Z" />
</g>
<g id="#949293ff">
<path fill="#949293" opacity="1.00" d=" M 97.26 56.84 C 103.28 65.54 102.05 77.92 95.60 86.03 C 87.83 95.56 73.10 98.08 62.70 91.43 C 67.13 91.11 71.61 90.95 75.92 89.80 C 83.19 87.80 89.29 82.51 93.01 76.04 C 96.40 70.26 97.09 63.40 97.26 56.84 Z" />
</g>
<g id="#b53c37ff">
<path fill="#b53c37" opacity="1.00" d=" M 62.70 91.43 C 73.10 98.08 87.83 95.56 95.60 86.03 C 97.46 88.91 99.76 91.66 100.64 95.05 C 100.38 98.88 97.35 102.42 93.56 103.22 C 87.81 104.54 81.87 104.60 76.00 104.77 C 69.49 104.81 62.54 104.57 56.80 101.11 C 53.79 99.38 51.49 95.87 52.37 92.32 C 53.23 89.97 55.35 88.42 57.04 86.68 C 58.81 88.40 60.70 89.99 62.70 91.43 Z" />
</g>
</svg>
